<svg width="257" height="32" viewBox="0 0 257 32" fill="none" xmlns="http://www.w3.org/2000/svg">
<path d="M9.35658 19.6223L8.29591 19.0162L12.2734 12.1219L13.3341 12.728L16.6676 6.9322V0H15.9478L0 27.653L0.340928 28.2591L6.36399 24.7741L9.35658 19.6223Z" fill="#2ED370"/>
<path d="M7.15978 26.1758L1.13672 29.6608L1.51553 30.2669H10.266L12.6904 28.8653H22.9561L25.3805 30.2669H33.4112L33.79 29.6608L27.767 26.1758H7.15978Z" fill="#2ED370"/>
<path d="M18.2578 0V6.9322L21.4398 12.4249L22.5005 11.8188L26.478 18.7132L25.4173 19.3192L28.5614 24.7741L34.5845 28.2591L34.9254 27.653L18.9775 0H18.2578Z" fill="#2ED370"/>
<path d="M48.7898 12.4C48.7898 11.328 49.0698 10.384 49.6298 9.568C50.1898 8.736 50.9578 8.088 51.9338 7.624C52.9258 7.144 54.0538 6.904 55.3178 6.904C56.5978 6.904 57.7018 7.128 58.6298 7.576C59.5578 8.024 60.2698 8.656 60.7658 9.472C61.2778 10.288 61.5338 11.256 61.5338 12.376H57.6698C57.6698 11.752 57.4538 11.264 57.0218 10.912C56.5898 10.544 56.0058 10.36 55.2698 10.36C54.4858 10.36 53.8538 10.528 53.3738 10.864C52.9098 11.2 52.6778 11.664 52.6778 12.256C52.6778 12.8 52.8218 13.216 53.1098 13.504C53.3978 13.792 53.8538 14 54.4778 14.128L57.1418 14.68C58.7258 15 59.9018 15.56 60.6698 16.36C61.4378 17.144 61.8218 18.24 61.8218 19.648C61.8218 20.784 61.5418 21.784 60.9818 22.648C60.4218 23.496 59.6298 24.152 58.6058 24.616C57.5978 25.08 56.4138 25.312 55.0538 25.312C53.7418 25.312 52.5898 25.088 51.5978 24.64C50.6218 24.192 49.8618 23.56 49.3178 22.744C48.7898 21.912 48.5258 20.944 48.5258 19.84H52.3898C52.3898 20.48 52.6218 20.976 53.0858 21.328C53.5498 21.68 54.2138 21.856 55.0778 21.856C55.9578 21.856 56.6538 21.696 57.1658 21.376C57.6778 21.04 57.9338 20.592 57.9338 20.032C57.9338 19.536 57.8058 19.152 57.5498 18.88C57.3098 18.608 56.8938 18.416 56.3018 18.304L53.5898 17.752C52.0058 17.432 50.8058 16.824 49.9898 15.928C49.1898 15.032 48.7898 13.856 48.7898 12.4ZM69.5108 25.312C68.3108 25.312 67.2388 25.04 66.2948 24.496C65.3668 23.952 64.6308 23.208 64.0868 22.264C63.5588 21.304 63.2948 20.208 63.2948 18.976C63.2948 17.728 63.5508 16.632 64.0628 15.688C64.5908 14.728 65.3188 13.976 66.2468 13.432C67.1748 12.888 68.2388 12.616 69.4388 12.616C70.7028 12.616 71.7908 12.88 72.7028 13.408C73.6148 13.92 74.3188 14.656 74.8148 15.616C75.3108 16.56 75.5588 17.688 75.5588 19V19.936L65.2388 19.984L65.2868 17.704H71.8868C71.8868 17.064 71.6708 16.56 71.2388 16.192C70.8068 15.808 70.2148 15.616 69.4628 15.616C68.8388 15.616 68.3268 15.736 67.9268 15.976C67.5428 16.216 67.2548 16.592 67.0628 17.104C66.8708 17.6 66.7748 18.24 66.7748 19.024C66.7748 20.144 66.9988 20.976 67.4468 21.52C67.9108 22.048 68.6228 22.312 69.5828 22.312C70.2868 22.312 70.8708 22.192 71.3348 21.952C71.7988 21.712 72.0948 21.376 72.2228 20.944H75.6068C75.3988 22.272 74.7428 23.336 73.6388 24.136C72.5348 24.92 71.1588 25.312 69.5108 25.312ZM77.0995 18.952C77.0995 17.72 77.3635 16.632 77.8915 15.688C78.4195 14.728 79.1395 13.976 80.0515 13.432C80.9795 12.888 82.0435 12.616 83.2435 12.616C85.0195 12.616 86.4595 13.072 87.5635 13.984C88.6675 14.896 89.2755 16.136 89.3875 17.704H85.6675C85.5395 17.096 85.2835 16.648 84.8995 16.36C84.5315 16.072 84.0275 15.928 83.3875 15.928C82.8755 15.928 82.4195 16.056 82.0195 16.312C81.6355 16.552 81.3395 16.896 81.1315 17.344C80.9235 17.792 80.8195 18.328 80.8195 18.952C80.8195 19.592 80.9155 20.144 81.1075 20.608C81.3155 21.056 81.6035 21.4 81.9715 21.64C82.3555 21.88 82.8115 22 83.3395 22C83.9955 22 84.5155 21.856 84.8995 21.568C85.2995 21.264 85.5555 20.816 85.6675 20.224H89.3875C89.3075 21.232 88.9955 22.12 88.4515 22.888C87.9235 23.64 87.2195 24.232 86.3395 24.664C85.4595 25.096 84.4595 25.312 83.3395 25.312C82.0755 25.312 80.9715 25.048 80.0275 24.52C79.0995 23.992 78.3795 23.256 77.8675 22.312C77.3555 21.352 77.0995 20.232 77.0995 18.952ZM99.3795 13H103.076V25H99.5955L99.3555 23.656C98.9875 24.152 98.4595 24.552 97.7715 24.856C97.0995 25.16 96.4035 25.312 95.6835 25.312C94.3235 25.312 93.2435 24.888 92.4435 24.04C91.6595 23.176 91.2675 22.008 91.2675 20.536V13H94.9635V19.192C94.9635 20.168 95.1395 20.888 95.4915 21.352C95.8435 21.8 96.3955 22.024 97.1475 22.024C97.9475 22.024 98.5155 21.808 98.8515 21.376C99.2035 20.928 99.3795 20.216 99.3795 19.24V13ZM114.105 13V16.48H112.929C111.873 16.48 111.041 16.736 110.433 17.248C109.841 17.76 109.545 18.608 109.545 19.792V25H105.849V13.024H109.329L109.617 15.592H109.281C109.441 14.792 109.801 14.136 110.361 13.624C110.937 13.096 111.713 12.832 112.689 12.832C112.913 12.832 113.137 12.848 113.361 12.88C113.601 12.896 113.849 12.936 114.105 13ZM121.19 25.312C119.99 25.312 118.918 25.04 117.974 24.496C117.046 23.952 116.31 23.208 115.766 22.264C115.238 21.304 114.974 20.208 114.974 18.976C114.974 17.728 115.23 16.632 115.742 15.688C116.27 14.728 116.998 13.976 117.926 13.432C118.854 12.888 119.918 12.616 121.118 12.616C122.382 12.616 123.47 12.88 124.382 13.408C125.294 13.92 125.998 14.656 126.494 15.616C126.99 16.56 127.238 17.688 127.238 19V19.936L116.918 19.984L116.966 17.704H123.566C123.566 17.064 123.35 16.56 122.918 16.192C122.486 15.808 121.894 15.616 121.142 15.616C120.518 15.616 120.006 15.736 119.606 15.976C119.222 16.216 118.934 16.592 118.742 17.104C118.55 17.6 118.454 18.24 118.454 19.024C118.454 20.144 118.678 20.976 119.126 21.52C119.59 22.048 120.302 22.312 121.262 22.312C121.966 22.312 122.55 22.192 123.014 21.952C123.478 21.712 123.774 21.376 123.902 20.944H127.286C127.078 22.272 126.422 23.336 125.318 24.136C124.214 24.92 122.838 25.312 121.19 25.312ZM140.123 7.24V25H136.235V7.24H140.123ZM143.435 19.096H139.163V15.64H142.571C143.515 15.64 144.219 15.44 144.683 15.04C145.147 14.624 145.379 14 145.379 13.168C145.379 12.336 145.147 11.72 144.683 11.32C144.219 10.904 143.515 10.696 142.571 10.696H139.163V7.24H143.435C144.651 7.24 145.707 7.488 146.603 7.984C147.515 8.48 148.219 9.176 148.715 10.072C149.227 10.952 149.483 11.984 149.483 13.168C149.483 14.352 149.227 15.392 148.715 16.288C148.219 17.168 147.515 17.856 146.603 18.352C145.707 18.848 144.651 19.096 143.435 19.096ZM154.637 25.312C153.373 25.312 152.365 24.968 151.613 24.28C150.877 23.576 150.509 22.64 150.509 21.472C150.509 20.368 150.885 19.488 151.637 18.832C152.405 18.176 153.509 17.792 154.949 17.68L158.309 17.416V17.224C158.309 16.824 158.229 16.496 158.069 16.24C157.909 15.968 157.677 15.768 157.373 15.64C157.085 15.496 156.717 15.424 156.269 15.424C155.485 15.424 154.885 15.568 154.469 15.856C154.069 16.144 153.869 16.56 153.869 17.104H150.797C150.797 16.192 151.029 15.4 151.493 14.728C151.957 14.056 152.613 13.536 153.461 13.168C154.325 12.8 155.325 12.616 156.461 12.616C157.629 12.616 158.613 12.824 159.413 13.24C160.229 13.656 160.845 14.264 161.261 15.064C161.693 15.864 161.909 16.84 161.909 17.992V25H158.645L158.405 23.416C158.213 23.96 157.757 24.416 157.037 24.784C156.333 25.136 155.533 25.312 154.637 25.312ZM155.933 22.576C156.637 22.576 157.213 22.408 157.661 22.072C158.109 21.72 158.333 21.2 158.333 20.512V19.864L156.461 20.032C155.661 20.096 155.093 20.232 154.757 20.44C154.437 20.632 154.277 20.92 154.277 21.304C154.277 21.736 154.413 22.056 154.685 22.264C154.957 22.472 155.373 22.576 155.933 22.576ZM163.696 21.208H167.2C167.232 21.624 167.4 21.952 167.704 22.192C168.008 22.432 168.44 22.552 169 22.552C169.576 22.552 170 22.456 170.272 22.264C170.544 22.072 170.68 21.824 170.68 21.52C170.68 21.344 170.608 21.168 170.464 20.992C170.336 20.816 170.048 20.68 169.6 20.584L167.392 20.104C166.288 19.864 165.464 19.48 164.92 18.952C164.376 18.408 164.104 17.608 164.104 16.552C164.104 15.72 164.32 15.016 164.752 14.44C165.2 13.848 165.8 13.4 166.552 13.096C167.304 12.776 168.16 12.616 169.12 12.616C170.048 12.616 170.864 12.784 171.568 13.12C172.288 13.456 172.848 13.928 173.248 14.536C173.648 15.144 173.848 15.856 173.848 16.672H170.344C170.344 16.256 170.224 15.928 169.984 15.688C169.744 15.432 169.4 15.304 168.952 15.304C168.536 15.304 168.2 15.408 167.944 15.616C167.704 15.808 167.584 16.064 167.584 16.384C167.584 16.896 168.016 17.248 168.88 17.44L171.112 17.92C172.104 18.128 172.856 18.488 173.368 19C173.896 19.496 174.16 20.224 174.16 21.184C174.16 22.032 173.936 22.768 173.488 23.392C173.04 24.016 172.416 24.496 171.616 24.832C170.816 25.152 169.896 25.312 168.856 25.312C167.272 25.312 166.016 24.936 165.088 24.184C164.16 23.416 163.696 22.424 163.696 21.208ZM175.227 21.208H178.731C178.763 21.624 178.931 21.952 179.235 22.192C179.539 22.432 179.971 22.552 180.531 22.552C181.107 22.552 181.531 22.456 181.803 22.264C182.075 22.072 182.211 21.824 182.211 21.52C182.211 21.344 182.139 21.168 181.995 20.992C181.867 20.816 181.579 20.68 181.131 20.584L178.923 20.104C177.819 19.864 176.995 19.48 176.451 18.952C175.907 18.408 175.635 17.608 175.635 16.552C175.635 15.72 175.851 15.016 176.283 14.44C176.731 13.848 177.331 13.4 178.083 13.096C178.835 12.776 179.691 12.616 180.651 12.616C181.579 12.616 182.395 12.784 183.099 13.12C183.819 13.456 184.379 13.928 184.779 14.536C185.179 15.144 185.379 15.856 185.379 16.672H181.875C181.875 16.256 181.755 15.928 181.515 15.688C181.275 15.432 180.931 15.304 180.483 15.304C180.067 15.304 179.731 15.408 179.475 15.616C179.235 15.808 179.115 16.064 179.115 16.384C179.115 16.896 179.547 17.248 180.411 17.44L182.643 17.92C183.635 18.128 184.387 18.488 184.899 19C185.427 19.496 185.691 20.224 185.691 21.184C185.691 22.032 185.467 22.768 185.019 23.392C184.571 24.016 183.947 24.496 183.147 24.832C182.347 25.152 181.427 25.312 180.387 25.312C178.803 25.312 177.547 24.936 176.619 24.184C175.691 23.416 175.227 22.424 175.227 21.208ZM189.983 25L186.119 13H190.007L191.111 16.912C191.255 17.424 191.391 17.968 191.519 18.544C191.647 19.12 191.759 19.712 191.855 20.32C191.935 19.888 192.007 19.528 192.071 19.24C192.135 18.936 192.215 18.616 192.311 18.28C192.407 17.928 192.543 17.472 192.719 16.912L193.943 13H197.735L198.863 16.912C198.895 17.008 198.943 17.208 199.007 17.512C199.087 17.8 199.175 18.128 199.271 18.496C199.367 18.848 199.447 19.192 199.511 19.528C199.591 19.864 199.647 20.128 199.679 20.32C199.727 20.032 199.807 19.648 199.919 19.168C200.047 18.672 200.167 18.208 200.279 17.776C200.407 17.344 200.487 17.056 200.519 16.912L201.671 13H205.583L201.383 25H197.951L196.799 21.184C196.495 20.192 196.263 19.36 196.103 18.688C195.943 18.016 195.847 17.552 195.815 17.296C195.767 17.552 195.671 17.96 195.527 18.52C195.383 19.08 195.119 19.992 194.735 21.256L193.583 25H189.983ZM205.959 18.976C205.959 17.712 206.239 16.608 206.799 15.664C207.375 14.704 208.159 13.96 209.151 13.432C210.159 12.904 211.303 12.64 212.583 12.64C213.863 12.64 214.999 12.904 215.991 13.432C216.983 13.96 217.759 14.704 218.319 15.664C218.895 16.608 219.183 17.712 219.183 18.976C219.183 20.24 218.895 21.344 218.319 22.288C217.759 23.232 216.983 23.968 215.991 24.496C214.999 25.024 213.863 25.288 212.583 25.288C211.303 25.288 210.159 25.024 209.151 24.496C208.159 23.968 207.375 23.232 206.799 22.288C206.239 21.344 205.959 20.24 205.959 18.976ZM209.679 18.952C209.679 19.56 209.799 20.096 210.039 20.56C210.295 21.008 210.639 21.36 211.071 21.616C211.503 21.856 212.007 21.976 212.583 21.976C213.159 21.976 213.663 21.856 214.095 21.616C214.527 21.36 214.863 21.008 215.103 20.56C215.343 20.096 215.463 19.56 215.463 18.952C215.463 18.344 215.343 17.816 215.103 17.368C214.863 16.92 214.527 16.576 214.095 16.336C213.663 16.08 213.159 15.952 212.583 15.952C212.007 15.952 211.503 16.08 211.071 16.336C210.639 16.576 210.295 16.92 210.039 17.368C209.799 17.816 209.679 18.344 209.679 18.952ZM229.582 13V16.48H228.406C227.35 16.48 226.518 16.736 225.91 17.248C225.318 17.76 225.022 18.608 225.022 19.792V25H221.326V13.024H224.806L225.094 15.592H224.758C224.918 14.792 225.278 14.136 225.838 13.624C226.414 13.096 227.19 12.832 228.166 12.832C228.39 12.832 228.614 12.848 228.838 12.88C229.078 12.896 229.326 12.936 229.582 13ZM236.139 25.312C234.987 25.312 233.987 25.056 233.139 24.544C232.291 24.032 231.627 23.312 231.147 22.384C230.683 21.44 230.451 20.336 230.451 19.072C230.451 17.792 230.691 16.672 231.171 15.712C231.651 14.736 232.331 13.976 233.211 13.432C234.107 12.888 235.163 12.616 236.379 12.616C237.131 12.616 237.827 12.752 238.467 13.024C239.123 13.296 239.627 13.656 239.979 14.104V6.904H243.675V25H240.195L240.003 23.464C239.683 24.008 239.171 24.456 238.467 24.808C237.779 25.144 237.003 25.312 236.139 25.312ZM237.027 21.928C237.603 21.928 238.107 21.808 238.539 21.568C238.987 21.312 239.331 20.96 239.571 20.512C239.827 20.048 239.955 19.52 239.955 18.928C239.955 18.32 239.827 17.792 239.571 17.344C239.331 16.896 238.987 16.552 238.539 16.312C238.107 16.056 237.603 15.928 237.027 15.928C236.451 15.928 235.947 16.056 235.515 16.312C235.083 16.568 234.747 16.92 234.507 17.368C234.283 17.816 234.171 18.336 234.171 18.928C234.171 19.52 234.283 20.04 234.507 20.488C234.747 20.936 235.083 21.288 235.515 21.544C235.947 21.8 236.451 21.928 237.027 21.928ZM245.587 21.208H249.091C249.123 21.624 249.291 21.952 249.595 22.192C249.899 22.432 250.331 22.552 250.891 22.552C251.467 22.552 251.891 22.456 252.163 22.264C252.435 22.072 252.571 21.824 252.571 21.52C252.571 21.344 252.499 21.168 252.355 20.992C252.227 20.816 251.939 20.68 251.491 20.584L249.283 20.104C248.179 19.864 247.355 19.48 246.811 18.952C246.267 18.408 245.995 17.608 245.995 16.552C245.995 15.72 246.211 15.016 246.643 14.44C247.091 13.848 247.691 13.4 248.443 13.096C249.195 12.776 250.051 12.616 251.011 12.616C251.939 12.616 252.755 12.784 253.459 13.12C254.179 13.456 254.739 13.928 255.139 14.536C255.539 15.144 255.739 15.856 255.739 16.672H252.235C252.235 16.256 252.115 15.928 251.875 15.688C251.635 15.432 251.291 15.304 250.843 15.304C250.427 15.304 250.091 15.408 249.835 15.616C249.595 15.808 249.475 16.064 249.475 16.384C249.475 16.896 249.907 17.248 250.771 17.44L253.003 17.92C253.995 18.128 254.747 18.488 255.259 19C255.787 19.496 256.051 20.224 256.051 21.184C256.051 22.032 255.827 22.768 255.379 23.392C254.931 24.016 254.307 24.496 253.507 24.832C252.707 25.152 251.787 25.312 250.747 25.312C249.163 25.312 247.907 24.936 246.979 24.184C246.051 23.416 245.587 22.424 245.587 21.208Z" fill="#EFEFEF"/>
</svg>
