<svg width="50" height="50" viewBox="0 0 50 50" fill="none" xmlns="http://www.w3.org/2000/svg">
<path d="M0 23.32C0 4.11598 4.11598 0 23.32 0H26.68C45.884 0 50 4.11598 50 23.32V26.68C50 45.884 45.884 50 26.68 50H23.32C4.11598 50 0 45.884 0 26.68V23.32Z" fill="#CCCCCC"/>
<path d="M30 11.6665C30.7956 11.6665 31.5587 11.9826 32.1213 12.5452C32.6839 13.1078 33 13.8709 33 14.6665V35.3332C33 36.1288 32.6839 36.8919 32.1213 37.4545C31.5587 38.0171 30.7956 38.3332 30 38.3332H20C19.2044 38.3332 18.4413 38.0171 17.8787 37.4545C17.3161 36.8919 17 36.1288 17 35.3332V14.6665C17 13.8709 17.3161 13.1078 17.8787 12.5452C18.4413 11.9826 19.2044 11.6665 20 11.6665H30ZM30 13.6665H20C19.7348 13.6665 19.4804 13.7719 19.2929 13.9594C19.1054 14.1469 19 14.4013 19 14.6665V35.3332C19 35.8852 19.448 36.3332 20 36.3332H30C30.2652 36.3332 30.5196 36.2278 30.7071 36.0403C30.8946 35.8527 31 35.5984 31 35.3332V14.6665C31 14.4013 30.8946 14.1469 30.7071 13.9594C30.5196 13.7719 30.2652 13.6665 30 13.6665ZM26.6653 32.3332C26.9305 32.3328 27.185 32.4378 27.3728 32.6251C27.5606 32.8124 27.6663 33.0666 27.6667 33.3318C27.667 33.5971 27.562 33.8515 27.3747 34.0393C27.1874 34.2271 26.9332 34.3328 26.668 34.3332L23.3347 34.3385C23.0695 34.3389 22.815 34.2338 22.6272 34.0466C22.4394 33.8593 22.3337 33.6051 22.3333 33.3398C22.333 33.0746 22.438 32.8201 22.6253 32.6323C22.8126 32.4446 23.0668 32.3389 23.332 32.3385L26.6653 32.3332Z" fill="#252525"/>
</svg>
