<svg width="24" height="24" viewBox="0 0 24 24" fill="none" xmlns="http://www.w3.org/2000/svg">
<path d="M9 22C8.45 22 7.979 21.804 7.587 21.412C7.195 21.02 6.99934 20.5493 7 20V17H4C3.45 17 2.979 16.804 2.587 16.412C2.195 16.02 1.99934 15.5493 2 15V13H8.45L10.15 15.55C10.2333 15.6833 10.35 15.7917 10.5 15.875C10.65 15.9583 10.8083 16 10.975 16C11.1917 16 11.3917 15.9333 11.575 15.8C11.7583 15.6667 11.8833 15.5 11.95 15.3L13.3 11.25L14.15 12.55C14.25 12.6833 14.375 12.7917 14.525 12.875C14.675 12.9583 14.8333 13 15 13H22V15C22 15.55 21.804 16.021 21.412 16.413C21.02 16.805 20.5493 17.0007 20 17H17V20C17 20.55 16.804 21.021 16.412 21.413C16.02 21.805 15.5493 22.0007 15 22H9ZM10.7 12.75L9.825 11.45C9.74167 11.3167 9.625 11.2083 9.475 11.125C9.325 11.0417 9.16667 11 9 11H2V9C2 8.45 2.196 7.979 2.588 7.587C2.98 7.195 3.45067 6.99934 4 7H7V4C7 3.45 7.196 2.979 7.588 2.587C7.98 2.195 8.45067 1.99934 9 2H15C15.55 2 16.021 2.196 16.413 2.588C16.805 2.98 17.0007 3.45067 17 4V7H20C20.55 7 21.021 7.196 21.413 7.588C21.805 7.98 22.0007 8.45067 22 9V11H15.525L13.825 8.45C13.7417 8.31667 13.625 8.20834 13.475 8.125C13.325 8.04167 13.1667 8 13 8C12.7833 8 12.5873 8.06667 12.412 8.2C12.2367 8.33333 12.116 8.5 12.05 8.7L10.7 12.75Z" fill="#EFEFEF"/>
</svg>
