<svg width="24" height="24" viewBox="0 0 24 24" fill="none" xmlns="http://www.w3.org/2000/svg">
<path d="M10.6625 19.85C10.6625 19.85 9.425 19.85 9.425 18.6125C9.425 17.375 10.6625 13.6625 15.6125 13.6625C20.5625 13.6625 21.8 17.375 21.8 18.6125C21.8 19.85 20.5625 19.85 20.5625 19.85H10.6625ZM15.6125 12.425C16.5971 12.425 17.5414 12.0339 18.2376 11.3376C18.9339 10.6414 19.325 9.69712 19.325 8.7125C19.325 7.72788 18.9339 6.7836 18.2376 6.08737C17.5414 5.39114 16.5971 5 15.6125 5C14.6279 5 13.6836 5.39114 12.9874 6.08737C12.2911 6.7836 11.9 7.72788 11.9 8.7125C11.9 9.69712 12.2911 10.6414 12.9874 11.3376C13.6836 12.0339 14.6279 12.425 15.6125 12.425ZM8.4548 19.85C8.27135 19.4637 8.17986 19.0401 8.1875 18.6125C8.1875 16.9357 9.029 15.2094 10.5833 14.009C9.8075 13.77 8.99924 13.6531 8.1875 13.6625C3.2375 13.6625 2 17.375 2 18.6125C2 19.85 3.2375 19.85 3.2375 19.85H8.4548ZM7.56875 12.425C8.38926 12.425 9.17617 12.0991 9.75636 11.5189C10.3366 10.9387 10.6625 10.1518 10.6625 9.33125C10.6625 8.51074 10.3366 7.72383 9.75636 7.14364C9.17617 6.56345 8.38926 6.2375 7.56875 6.2375C6.74824 6.2375 5.96133 6.56345 5.38114 7.14364C4.80095 7.72383 4.475 8.51074 4.475 9.33125C4.475 10.1518 4.80095 10.9387 5.38114 11.5189C5.96133 12.0991 6.74824 12.425 7.56875 12.425Z" fill="#B8B8B8"/>
</svg>
