<svg width="24" height="24" viewBox="0 0 24 24" fill="none" xmlns="http://www.w3.org/2000/svg">
<path fill-rule="evenodd" clip-rule="evenodd" d="M1.25 12.0005C1.2499 10.7223 1.67565 9.4806 2.45999 8.47143C3.24433 7.46227 4.34255 6.74319 5.58115 6.42781C6.81976 6.11242 8.12814 6.2187 9.2996 6.72987C10.4711 7.24103 11.4388 8.12793 12.05 9.25046H21C21.966 9.25046 22.75 10.0345 22.75 11.0005V13.5005C22.75 13.6994 22.671 13.8901 22.5303 14.0308C22.3897 14.1714 22.1989 14.2505 22 14.2505H19.75V16.0005C19.75 16.1994 19.671 16.3901 19.5303 16.5308C19.3897 16.6714 19.1989 16.7505 19 16.7505H16.5C16.3011 16.7505 16.1103 16.6714 15.9697 16.5308C15.829 16.3901 15.75 16.1994 15.75 16.0005V14.2505H12.293C11.774 15.4703 10.8495 16.4735 9.67596 17.0901C8.5024 17.7067 7.15184 17.899 5.85283 17.6343C4.55382 17.3696 3.38614 16.6643 2.54739 15.6377C1.70863 14.611 1.25032 13.3262 1.25 12.0005ZM7 10.0005C6.46957 10.0005 5.96086 10.2112 5.58579 10.5862C5.21071 10.9613 5 11.47 5 12.0005C5 12.5309 5.21071 13.0396 5.58579 13.4147C5.96086 13.7897 6.46957 14.0005 7 14.0005C7.53043 14.0005 8.03914 13.7897 8.41421 13.4147C8.78929 13.0396 9 12.5309 9 12.0005C9 11.47 8.78929 10.9613 8.41421 10.5862C8.03914 10.2112 7.53043 10.0005 7 10.0005Z" fill="#B8B8B8"/>
</svg>
