<svg width="24" height="24" viewBox="0 0 24 24" fill="none" xmlns="http://www.w3.org/2000/svg">
<path d="M2 8.125C2 7.2962 2.32924 6.50134 2.91529 5.91529C3.50134 5.32924 4.2962 5 5.125 5H18.875C19.7038 5 20.4987 5.32924 21.0847 5.91529C21.6708 6.50134 22 7.2962 22 8.125V15.875C22 16.7038 21.6708 17.4987 21.0847 18.0847C20.4987 18.6708 19.7038 19 18.875 19H5.125C4.2962 19 3.50134 18.6708 2.91529 18.0847C2.32924 17.4987 2 16.7038 2 15.875V8.125ZM6.067 10.183C5.94977 10.0658 5.79078 9.99992 5.625 9.99992C5.45922 9.99992 5.30023 10.0658 5.183 10.183C5.06577 10.3002 4.99992 10.4592 4.99992 10.625C4.99992 10.7908 5.06577 10.9498 5.183 11.067L6.116 12L5.183 12.933C5.06577 13.0502 4.99992 13.2092 4.99992 13.375C4.99992 13.5408 5.06577 13.6998 5.183 13.817C5.30023 13.9342 5.45922 14.0001 5.625 14.0001C5.79078 14.0001 5.94977 13.9342 6.067 13.817L7 12.884L7.933 13.817C8.05023 13.9342 8.20922 14.0001 8.375 14.0001C8.54078 14.0001 8.69977 13.9342 8.817 13.817C8.93423 13.6998 9.00008 13.5408 9.00008 13.375C9.00008 13.2092 8.93423 13.0502 8.817 12.933L7.884 12L8.817 11.067C8.93423 10.9498 9.00008 10.7908 9.00008 10.625C9.00008 10.4592 8.93423 10.3002 8.817 10.183C8.69977 10.0658 8.54078 9.99992 8.375 9.99992C8.20922 9.99992 8.05023 10.0658 7.933 10.183L7 11.116L6.067 10.183ZM10.683 10.183C10.6249 10.241 10.5789 10.3099 10.5475 10.3858C10.5161 10.4616 10.4999 10.5429 10.4999 10.625C10.4999 10.7071 10.5161 10.7884 10.5475 10.8642C10.5789 10.9401 10.6249 11.009 10.683 11.067L11.616 12L10.683 12.933C10.5658 13.0502 10.4999 13.2092 10.4999 13.375C10.4999 13.5408 10.5658 13.6998 10.683 13.817C10.8002 13.9342 10.9592 14.0001 11.125 14.0001C11.2908 14.0001 11.4498 13.9342 11.567 13.817L12.5 12.884L13.433 13.817C13.5502 13.9342 13.7092 14.0001 13.875 14.0001C14.0408 14.0001 14.1998 13.9342 14.317 13.817C14.4342 13.6998 14.5001 13.5408 14.5001 13.375C14.5001 13.2092 14.4342 13.0502 14.317 12.933L13.384 12L14.317 11.067C14.4342 10.9498 14.5001 10.7908 14.5001 10.625C14.5001 10.4592 14.4342 10.3002 14.317 10.183C14.1998 10.0658 14.0408 9.99992 13.875 9.99992C13.7092 9.99992 13.5502 10.0658 13.433 10.183L12.5 11.116L11.567 10.183C11.509 10.1249 11.4401 10.0789 11.3642 10.0475C11.2884 10.0161 11.2071 9.99988 11.125 9.99988C11.0429 9.99988 10.9616 10.0161 10.8858 10.0475C10.8099 10.0789 10.741 10.1249 10.683 10.183ZM16.625 12.75C16.4592 12.75 16.3003 12.8158 16.1831 12.9331C16.0658 13.0503 16 13.2092 16 13.375C16 13.5408 16.0658 13.6997 16.1831 13.8169C16.3003 13.9342 16.4592 14 16.625 14H18.875C19.0408 14 19.1997 13.9342 19.3169 13.8169C19.4342 13.6997 19.5 13.5408 19.5 13.375C19.5 13.2092 19.4342 13.0503 19.3169 12.9331C19.1997 12.8158 19.0408 12.75 18.875 12.75H16.625Z" fill="#EFEFEF"/>
</svg>
